<?xml version="1.0" encoding="UTF-8" standalone="no"?>
<!-- Created with Inkscape (http://www.inkscape.org/) -->

<svg
   version="1.1"
   id="svg1"
   width="378"
   height="460"
   viewBox="0 0 378 460"
   sodipodi:docname="logo_transparent_svg.svg"
   inkscape:version="1.4.2 (f4327f4, 2025-05-13)"
   xmlns:inkscape="http://www.inkscape.org/namespaces/inkscape"
   xmlns:sodipodi="http://sodipodi.sourceforge.net/DTD/sodipodi-0.dtd"
   xmlns="http://www.w3.org/2000/svg"
   xmlns:svg="http://www.w3.org/2000/svg">
  <defs
     id="defs1" />
  <sodipodi:namedview
     id="namedview1"
     pagecolor="#ffffff"
     bordercolor="#000000"
     borderopacity="0.25"
     inkscape:showpageshadow="2"
     inkscape:pageopacity="0.0"
     inkscape:pagecheckerboard="0"
     inkscape:deskcolor="#d1d1d1"
     inkscape:zoom="2.5369565"
     inkscape:cx="189.20308"
     inkscape:cy="206.94087"
     inkscape:window-width="1718"
     inkscape:window-height="1360"
     inkscape:window-x="-7"
     inkscape:window-y="0"
     inkscape:window-maximized="0"
     inkscape:current-layer="g1" />
  <g
     inkscape:groupmode="layer"
     inkscape:label="Image"
     id="g1">
    <path
       style="fill:#d0d0d0;fill-opacity:1"
       d="m 14.576535,454.10582 c -4.265984,-2.71071 -8.7979104,5.87193 -7.6823698,-6.12854 0,-11.62382 0,-23.24764 0,-34.87146 8.5840868,-2.76628 2.804302,11.01545 4.4999998,16.18499 4.070453,-3.01921 12.348058,-8.38996 16.47525,-1.40974 6.883949,6.32401 5.017343,18.28159 0.4909,25.6909 -4.185674,2.22732 -10.319977,5.46537 -13.78378,0.53385 z m 9.7922,-3.47456 c 4.665274,-5.65592 5.466083,-23.06503 -5.236355,-22.02544 -7.579155,1.18387 -8.803997,8.94831 -7.738215,15.55058 -1.146849,5.22874 9.336267,12.21792 12.97457,6.47486 z m 22.52543,5.02053 c -9.440152,-3.34724 -6.858998,-13.12065 -7.70372,-20.75134 2.157117,-6.9856 9.136303,-12.30074 16.52607,-9.70714 6.253887,1.44762 10.661272,10.6525 7.55962,16.41251 -6.162399,0.85943 -15.697421,-1.65376 -19.88197,1.18353 -3.39056,16.69971 21.930054,2.28709 18.5,12.23448 -4.80602,1.50154 -10.109092,1.98641 -15,0.62796 z m 12.5,-20.54597 c 1.03608,-14.06433 -24.870078,-0.24133 -12.449424,2.5 3.219518,-1.1491 13.586756,2.61465 12.449424,-2.5 z m 17.78937,20.44193 c -6.220108,-6.46344 -2.941027,-17.37021 -3.79021,-25.80283 -11.138668,-1.94398 3.676444,-4.0172 0.487567,-11.48958 8.521803,-3.98307 0.348156,11.85051 10.879484,7.35048 7.392817,6.29493 -11.432259,0.53558 -6.367051,9.91763 1.09918,5.49836 -3.461743,17.81312 5.313452,16.87328 8.333343,-1.08769 -2.420984,8.83234 -6.523242,3.15102 z m 21,0 c -6.220108,-6.46344 -2.941027,-17.37021 -3.79021,-25.80283 -11.138668,-1.94398 3.676444,-4.0172 0.487567,-11.48958 8.521798,-3.98306 0.348159,11.85055 10.879538,7.35048 7.39282,6.29494 -11.432272,0.53558 -6.367065,9.91763 1.099175,5.49836 -3.461739,17.81313 5.313465,16.87328 8.33329,-1.08772 -2.42084,8.83233 -6.523295,3.15102 z m 73.710645,0.10404 c -9.44016,-3.34723 -6.85901,-13.12065 -7.70373,-20.75134 2.15712,-6.98561 9.13631,-12.30074 16.52608,-9.70714 6.25387,1.44763 10.66128,10.6525 7.55961,16.41251 -6.16239,0.85943 -15.69742,-1.65376 -19.88196,1.18353 -3.39057,16.69971 21.93003,2.28709 18.5,12.23448 -4.80602,1.50154 -10.10909,1.98641 -15,0.62796 z m 12.5,-20.54597 c 1.03608,-14.06432 -24.87008,-0.24133 -12.44942,2.5 3.21951,-1.1491 13.58675,2.61465 12.44942,-2.5 z m 48,20.26637 c -8.45917,-8.17241 2.9991,-2.25339 8.85714,-2.76637 10.12885,-8.17685 -7.91116,-10.25969 -10.85714,-16.38226 -2.28465,-8.01227 7.20719,-14.58682 14.4349,-10.64249 9.54968,8.4913 -9.61863,-1.38586 -10.92467,7.02475 5.60919,5.84295 21.83363,11.7865 11.43498,21.43988 -2.59759,2.9253 -9.55084,3.27625 -12.94521,1.32649 z m 28.76257,-0.33176 c -8.18424,-4.73228 -7.74671,-17.58883 -3.80038,-24.98227 4.32043,-6.35963 13.1935,-7.0794 19.03781,-2.40098 -0.28936,7.29895 -14.98052,-5.77597 -16.62426,7.12272 -3.17276,8.83617 3.03822,24.08632 14.38477,15.22076 7.36039,-1.6212 -5.00379,10.78902 -10.18338,6.09941 l -2.81456,-1.05965 z m 75.5528,0.55841 c -11.12152,-7.89119 -2.6e-4,-20.93175 10.46104,-17.99302 9.75127,-1.46451 -4.9112,-15.76112 -11.40056,-7.09475 -7.65451,-0.21037 4.57365,-8.7439 9.70859,-5.39444 7.40543,-1.16737 10.3157,7.83738 8.91556,13.8854 -1.65943,5.2085 3.975,17.71086 -4,16.60379 1.71737,-10.1219 -7.74527,7.1203 -13.68463,-0.007 z m 11.04977,-5.0656 c 7.08712,-5.69181 0.42955,-11.4241 -6.92013,-8.92742 -6.77172,1.43478 -5.56604,12.0494 1.49156,11 2.41078,0.54955 3.73209,-0.52609 5.42857,-2.07258 z m -232.92694,3.77213 c 1.13557,-8.44823 -2.68304,-22.2465 1.8118,-28.51053 2.08607,7.6063 4.36851,0.10121 11.88358,-1.18902 7.53827,3.94528 10.22611,6.8314 18.89043,-0.22284 11.45313,3.40854 7.21261,16.52094 7.96865,25.39046 0.45344,11.90208 -6.82543,2.38214 -4.00735,-4.91762 0.13897,-6.1496 1.51081,-17.49343 -7.72429,-16.34848 -6.77275,2.75145 -6.92493,9.80077 -6.26101,16.28557 2.96122,7.4339 -4.41281,16.9992 -4,4.89528 -0.55532,-7.34535 2.94029,-20.42902 -7.78747,-21.07567 -7.20951,2.04447 -6.66197,9.70359 -6.21253,15.94556 -0.70207,3.90832 2.53991,15.91075 -4.56181,9.74729 z m 83,0 c 1.13557,-8.44823 -2.68304,-22.2465 1.8118,-28.51053 1.57422,8.82291 6.63507,-2.30811 15.04584,-0.82962 7.94033,2.10569 6.87706,12.28293 6.70068,18.8906 2.7568,7.23667 -4.15356,18.48038 -3.997,5.83237 -0.54643,-7.36139 2.93833,-20.50114 -7.85678,-21.07539 -7.50814,1.92039 -7.97134,9.40359 -7.14322,16.08192 -0.71308,3.90239 2.56362,15.77015 -4.56132,9.61065 z m 86.00853,0.0222 c -0.65239,-13.72786 -0.0221,-27.48269 0.0533,-41.22175 8.58409,-2.76628 2.8043,11.01545 4.5,16.18499 5.13629,-5.60579 16.55392,-7.0558 19,3.21569 0,7.69977 0,15.39955 0,23.09932 -7.99979,0.98777 -2.27356,-11.75048 -4,-17.03605 1.3394,-9.80629 -10.17719,-13.05818 -15,-4.78615 0,7.27407 0,14.54814 0,21.82221 -1.37845,-0.48229 -4.61082,1.17187 -4.55327,-1.27826 z m 34.11648,-0.52262 c -2.30188,-11.56118 11.81167,0.6327 1.60098,1.77608 -1.54115,1.01145 -1.12238,-1.09642 -1.60098,-1.77608 z m 47.43679,-13.19913 c -0.35152,-4.64128 -0.82611,-20.9284 4,-12.63295 0,9.21098 0,18.42197 0,27.63295 -7.75556,1.89895 -2.44242,-10.49966 -4,-15 z m -0.63838,-21.5 c 1.86915,-16.00231 10.08549,8.48622 0,0 z m -364.36163079,-90 c 0,-21.5 0,-43 0,-64.5 8.33333189,0 16.66666379,0 24.99999579,0 0,8 0,16 0,24 10.666667,0 21.333333,0 32,0 1.798024,-6.0883 -10.384964,-10.40611 -2.68555,-15.82568 5.901477,-7.44819 15.987415,4.86416 7.789453,10.27241 -2.875793,9.23237 8.724297,4.38795 14.098411,5.55327 10.2659,0 20.531801,0 30.797701,0 2.09369,-7.58926 -2.65904,-12.34263 -4,-18.50921 1.26342,-7.3752 13.3743,-7.05976 13,0.87626 -1.8702,5.39997 -5.8818,9.91295 -4,16.86705 5.88061,1.78606 15.07234,0.261 22.2341,0.7659 6.57278,-0.0908 15.64698,2.31985 12.7659,-7.2248 3.47595,-5.46582 9.83374,-10.23211 11.68665,-16.09191 -3.84083,-6.61951 7.11305,-13.98951 11.15023,-6.84641 5.78983,7.94393 -6.63879,8.61753 -8.81269,14.09724 8.1309,5.04682 14.58372,15.16706 24.21517,16.06588 43.58688,0 87.17376,0 130.76064,0 2.8571,-6.77725 -9.16853,-11.21512 -1.68555,-16.82568 5.02472,-7.28225 15.58719,3.9816 8.68555,8.82568 -7.08908,7.80704 3.14867,9.40432 9.83525,8 5.97271,-0.81005 15.2276,1.66209 19.16475,-1.18353 0,-7.60549 0,-15.21098 0,-22.81647 8.33333,0 16.66667,0 25,0 0,43 0,86 0,129 -8.33333,0 -16.66667,0 -25,0 0,-8 0,-16 0,-24 -109.00001,0 -218.00001,0 -327.000015,0 0,8 0,16 0,24 -8.333332,0 -16.6666639,0 -24.99999579,0 0,-21.5 0,-43 0,-64.5 z M 165.8484,282.44198 c -4.98169,-7.56855 -12.53677,-5.77453 -13.45422,2.95534 0.064,6.91782 12.47879,1.48481 17.7369,3.2085 8.81951,1.59188 -3.26834,-4.29428 -4.28268,-6.16384 z M 60.394165,277.10582 c -3.577081,-7.45894 -4.734666,7.07455 0,0 z m 260.000015,-1 c -3.57708,-7.45894 -4.73467,7.07455 0,0 z m -209,-5 c -3.57708,-7.45894 -4.73467,7.07455 0,0 z m 55,-9 c -3.57708,-7.45894 -4.73467,7.07455 0,0 z m 81.07776,12.12583 c -7.94956,-14.72447 -29.83808,-9.8348 -39.29602,-5.0987 -5.17232,-19.64819 -25.04945,-32.6196 -44.78174,-33.82278 0,-9.23478 0,-18.46957 0,-27.70435 37.66667,0 75.33333,0 113,0 4.1e-4,20.83333 8.3e-4,41.66667 0.001,62.5 -9.63411,-1.96823 -19.40732,1.02973 -26.84763,7.48462 -0.69195,-1.1196 -1.3839,-2.23919 -2.07585,-3.35879 z m 36.17224,-0.98574 c -5.17402,-3.93778 -0.81385,-13.79304 -2.25,-20.05076 0,-15.19644 0,-30.39289 0,-45.58933 11,0 22,0 33,0 -0.13621,-7.23111 -2.12507,-16.31486 8.28468,-13 5.24795,1.56852 17.77768,-4.14474 15.71532,4.7341 -0.0742,21.42163 0.2124,42.85016 -0.31217,64.2659 -12.16942,-7.39027 -27.80271,-7.90126 -40.023,-0.6957 -4.58866,2.99868 -8.90758,13.13074 -14.41483,10.33579 z M 39.394165,230.64478 c 0,-11.67965 0,-23.35931 0,-35.03896 6.603668,0.79084 16.366307,-1.57729 21,1.18353 -1.308731,8.07029 0.05396,13.46915 9.468203,10.81647 29.510604,0 59.021212,0 88.531812,0 0,9.32063 0,18.64127 0,27.9619 -13.04276,2.01058 -25.54744,7.72697 -33.89779,18.09379 -9.60354,-4.43431 -20.88417,-5.82084 -30.521665,-0.752 -8.475673,1.98308 -10.647216,18.04872 -18.907619,7.69391 -11.007782,-6.97357 -26.761506,-4.39912 -35.672941,5.08031 0,-11.67965 0,-23.3593 0,-35.03895 z M 0.39416921,173.61776 C -2.3777661,163.58056 3.5627459,162.22697 12.229357,163.59045 c 48.721675,-0.16154 97.443353,-0.32308 146.165023,-0.48463 -0.82127,6.40663 1.61165,16.06749 -1.18373,20.5 -52.27216,0 -104.544319,0 -156.81648079,0 0,-3.32935 0,-6.65871 0,-9.98806 z M 163.39418,172.8419 c -1.8164,-8.19456 1.01009,-13.45383 9.37209,-15.2135 8.49601,-5.47069 14.4569,-14.06189 17.12791,-23.66405 0.0482,-8.5697 1.12986,-17.36961 -4.16748,-24.74854 C 178.60637,96.078523 163.03459,88.879215 148.45691,89.72385 135.9911,96.212051 139.28823,77.101247 131.08641,71.903968 112.98158,47.474617 72.083631,48.152859 53.972941,72.605298 48.154781,76.269557 40.204198,62.874466 31.558269,64.426756 21.010435,61.730373 10.049869,65.404353 0.86929621,70.605824 0.10117812,51.404799 0.84319189,32.169932 0.89416921,12.954657 5.3349675,4.1625543 13.723482,-0.94658873 23.39913,1.0891533 136.23081,0.91252026 249.0625,0.7358872 361.89418,0.55925412 c 6.68394,1.55675378 12.94492,6.05695408 15.5,12.23586088 0,8.287357 0,16.574713 0,24.862069 -8.59284,-5.72599 -19.95,-5.064172 -28.71416,0.05293 -5.03914,-15.735467 -24.86511,-22.881735 -38.96664,-14.828313 -8.44456,2.464178 -8.79454,16.872576 -18.56515,14.262223 -9.82091,-1.152264 -19.23784,6.862522 -21.98157,15.796237 1.31237,11.307914 -8.19716,1.197779 -14.40997,3.983223 -15.2471,-0.05812 -26.71979,19.988788 -16.33273,32.17658 4.24041,7.680505 13.81435,10.110805 22.11827,9.28553 5.27105,1.729456 17.87883,-3.687581 15.85195,5.150586 0,26.68988 0,53.37977 0,80.06966 -37.66667,0 -75.33333,0 -113,0 0,-3.58798 0,-7.17596 0,-10.76394 z m 118,-31.73608 c 0,-14.16667 0,-28.33333 0,-42.499996 32,0 64,0 96,0 0,28.333336 0,56.666666 0,84.999996 -32,0 -64,0 -96,0 0,-14.16667 0,-28.33333 0,-42.5 z m -259.000015,6.5 c -6.797386,-5.94129 5.511473,-10.16765 2,-17.41112 -1.090461,-12.46882 -2.824373,-19.88382 10,-28.08888 4.557529,-6.290778 14.974495,-10.150682 13,-19.151366 3.069459,-6.477221 13.283673,-5.244063 13,2.15137 0.187617,8.440093 -10.676296,4.736794 -13.546757,11.528398 -5.973542,5.990528 -11.947076,11.981068 -17.920613,17.971598 18.666493,0 37.332987,0 55.99948,0 7.125819,-8.0674 14.251641,-16.1348 21.377465,-24.202196 -4.19144,-6.225452 5.03283,-15.032505 10.09044,-8.7978 7.02254,6.796592 -3.71253,10.399045 -7.84669,13.694093 -7.13558,8.101973 -14.271141,16.203943 -21.406705,24.305923 -5.316539,1.78253 -18.09976,-3.90163 -17.74662,3.55058 0.713866,6.07306 -2.466089,13.759 4,17.44942 2.427663,6.98419 -7.853319,12.96064 -11.836879,6.16312 -4.409695,-6.31815 6.462945,-10.15999 2.836879,-17.75777 2.87007,-9.95027 -3.661104,-10.4993 -11.835253,-9.40535 -7.721583,0 -15.443165,0 -23.164747,0 1.212883,7.04989 -3.21071,16.43449 4,21 2.092593,6.41071 -6.48866,12.70717 -11,6.99998 z m 6,-4.5 c -3.577081,-7.45894 -4.734666,7.07455 0,0 z m 40,0 c -3.577081,-7.45894 -4.734666,7.07455 0,0 z M 113.39418,86.105824 c -3.57708,-7.458943 -4.73467,7.074552 0,0 z m -58.000015,-1 c -3.577081,-7.458943 -4.734666,7.074552 0,0 z M 162.2952,141.50685 c -2.61263,-5.30063 -1.34377,-12.1658 -8.02968,-16.51796 -3.31744,-8.10643 -11.17855,-6.5031 -18.34556,-6.38307 -8.00274,0.56418 -16.94697,-1.14459 -24.36266,0.83688 -3.71932,6.97561 -14.471935,1.73771 -12.163135,-5.48825 4.914235,-8.67493 10.609035,-0.98747 16.550595,-0.34863 11.99927,0 23.99854,0 35.99781,0 5.69212,6.31587 9.367,17.37768 18.28849,17.83688 7.15501,3.94764 1.45518,14.56856 -5.83688,12.16312 -0.69966,-0.69966 -1.39932,-1.39931 -2.09898,-2.09897 z m 6.09898,-4.40103 c -3.57708,-7.45894 -4.73467,7.07455 0,0 z m -61,-21 c -3.57708,-7.45894 -4.73467,7.07455 0,0 z m 202,-33.499996 c -7.28544,-5.412782 5.41694,-16.418198 9.83688,-8.163121 6.92235,2.731077 15.95398,0.369925 23.67903,1.163121 6.19389,1.551233 4.24032,-12.814435 0.0456,-14.492962 -7.29284,-3.491655 -13.00737,-12.122234 -21.56152,-11.507038 -7.34877,-3.392298 -3.45477,-14.160105 3.99798,-13 7.92153,1.96563 1.58178,11.811983 10.38608,13.475447 4.75762,4.938211 15.55132,6.669957 15.61594,14.101159 -1.18334,8.1016 -0.25999,14.142242 9.46592,11.571434 4.75803,0.836217 19.86447,-2.113621 14.85061,4.363081 -18.44925,0.173359 -36.89849,0.346719 -55.34773,0.520079 -2.41725,3.662702 -7.83387,6.28807 -10.9688,1.9688 z m 6,-4.5 c -3.57708,-7.458943 -4.73467,7.074552 0,0 z m 10,-35 c -3.57708,-7.458943 -4.73467,7.074552 0,0 z"
       id="path1" />
  </g>
</svg>
